<svg version="1.0" preserveAspectRatio="xMidYMid meet" viewBox="45.75 149.24999641800002 275.25 68.999998344" zoomAndPan="magnify" xmlns:xlink="http://www.w3.org/1999/xlink" xmlns="http://www.w3.org/2000/svg" style="max-height: 500px" width="275.25" height="68.999998344"><defs><filter id="b99ad08631" height="100%" width="100%" y="0%" x="0%"><feColorMatrix color-interpolation-filters="sRGB" values="0 0 0 0 1 0 0 0 0 1 0 0 0 0 1 0 0 0 1 0"/></filter><g/><clipPath id="aa331bc4e1"><path clip-rule="nonzero" d="M 0.988281 0.417969 L 313 0.417969 L 313 208.582031 L 0.988281 208.582031 Z M 0.988281 0.417969"/></clipPath><clipPath id="96cdf2353e"><path clip-rule="nonzero" d="M 0.988281 0.417969 L 313 0.417969 L 313 208.582031 L 0.988281 208.582031 Z M 0.988281 0.417969"/></clipPath><clipPath id="c0a19dd573"><path clip-rule="nonzero" d="M 4.457031 3.394531 L 313 3.394531 L 313 204.617188 L 4.457031 204.617188 Z M 4.457031 3.394531"/></clipPath><linearGradient id="b5b084f6fa" y2="53.5" gradientUnits="userSpaceOnUse" x2="473.644038" y1="53.5" gradientTransform="matrix(0.495343, 0, 0, 0.495458, 78.383778, 77.497397)" x1="-149.240005"><stop offset="0" stop-color="rgb(100%, 34.509277%, 34.509277%)" stop-opacity="1"/><stop offset="0.25" stop-color="rgb(100%, 34.527588%, 34.527588%)" stop-opacity="1"/><stop offset="0.253906" stop-color="rgb(100%, 35.148621%, 35.148621%)" stop-opacity="1"/><stop offset="0.257812" stop-color="rgb(100%, 35.749817%, 35.749817%)" stop-opacity="1"/><stop offset="0.261719" stop-color="rgb(100%, 36.351013%, 36.351013%)" stop-opacity="1"/><stop offset="0.265625" stop-color="rgb(100%, 36.953735%, 36.953735%)" stop-opacity="1"/><stop offset="0.269531" stop-color="rgb(100%, 37.554932%, 37.554932%)" stop-opacity="1"/><stop offset="0.273438" stop-color="rgb(100%, 38.157654%, 38.157654%)" stop-opacity="1"/><stop offset="0.277344" stop-color="rgb(100%, 38.75885%, 38.75885%)" stop-opacity="1"/><stop offset="0.28125" stop-color="rgb(100%, 39.360046%, 39.360046%)" stop-opacity="1"/><stop offset="0.285156" stop-color="rgb(100%, 39.961243%, 39.961243%)" stop-opacity="1"/><stop offset="0.289062" stop-color="rgb(100%, 40.563965%, 40.563965%)" stop-opacity="1"/><stop offset="0.292969" stop-color="rgb(100%, 41.165161%, 41.165161%)" stop-opacity="1"/><stop offset="0.296875" stop-color="rgb(100%, 41.766357%, 41.766357%)" stop-opacity="1"/><stop offset="0.300781" stop-color="rgb(100%, 42.367554%, 42.367554%)" stop-opacity="1"/><stop offset="0.304688" stop-color="rgb(100%, 42.970276%, 42.970276%)" stop-opacity="1"/><stop offset="0.308594" stop-color="rgb(100%, 43.571472%, 43.571472%)" stop-opacity="1"/><stop offset="0.3125" stop-color="rgb(100%, 44.174194%, 44.174194%)" stop-opacity="1"/><stop offset="0.316406" stop-color="rgb(100%, 44.775391%, 44.775391%)" stop-opacity="1"/><stop offset="0.320312" stop-color="rgb(100%, 45.376587%, 45.376587%)" stop-opacity="1"/><stop offset="0.324219" stop-color="rgb(100%, 45.977783%, 45.977783%)" stop-opacity="1"/><stop offset="0.328125" stop-color="rgb(100%, 46.580505%, 46.580505%)" stop-opacity="1"/><stop offset="0.332031" stop-color="rgb(100%, 47.181702%, 47.181702%)" stop-opacity="1"/><stop offset="0.335938" stop-color="rgb(100%, 47.782898%, 47.782898%)" stop-opacity="1"/><stop offset="0.339844" stop-color="rgb(100%, 48.384094%, 48.384094%)" stop-opacity="1"/><stop offset="0.34375" stop-color="rgb(100%, 48.986816%, 48.986816%)" stop-opacity="1"/><stop offset="0.347656" stop-color="rgb(100%, 49.588013%, 49.588013%)" stop-opacity="1"/><stop offset="0.351562" stop-color="rgb(100%, 50.189209%, 50.189209%)" stop-opacity="1"/><stop offset="0.355469" stop-color="rgb(100%, 50.790405%, 50.790405%)" stop-opacity="1"/><stop offset="0.359375" stop-color="rgb(100%, 51.393127%, 51.393127%)" stop-opacity="1"/><stop offset="0.363281" stop-color="rgb(100%, 51.994324%, 51.994324%)" stop-opacity="1"/><stop offset="0.367188" stop-color="rgb(100%, 52.597046%, 52.597046%)" stop-opacity="1"/><stop offset="0.371094" stop-color="rgb(100%, 53.198242%, 53.198242%)" stop-opacity="1"/><stop offset="0.375" stop-color="rgb(100%, 53.799438%, 53.799438%)" stop-opacity="1"/><stop offset="0.378906" stop-color="rgb(100%, 54.400635%, 54.400635%)" stop-opacity="1"/><stop offset="0.382813" stop-color="rgb(100%, 55.003357%, 55.003357%)" stop-opacity="1"/><stop offset="0.386719" stop-color="rgb(100%, 55.604553%, 55.604553%)" stop-opacity="1"/><stop offset="0.390625" stop-color="rgb(100%, 56.20575%, 56.20575%)" stop-opacity="1"/><stop offset="0.394531" stop-color="rgb(100%, 56.806946%, 56.806946%)" stop-opacity="1"/><stop offset="0.398438" stop-color="rgb(100%, 57.409668%, 57.409668%)" stop-opacity="1"/><stop offset="0.402344" stop-color="rgb(100%, 58.010864%, 58.010864%)" stop-opacity="1"/><stop offset="0.40625" stop-color="rgb(100%, 58.613586%, 58.613586%)" stop-opacity="1"/><stop offset="0.410156" stop-color="rgb(100%, 59.214783%, 59.214783%)" stop-opacity="1"/><stop offset="0.414062" stop-color="rgb(100%, 59.815979%, 59.815979%)" stop-opacity="1"/><stop offset="0.417969" stop-color="rgb(100%, 60.417175%, 60.417175%)" stop-opacity="1"/><stop offset="0.421875" stop-color="rgb(100%, 61.019897%, 61.019897%)" stop-opacity="1"/><stop offset="0.425781" stop-color="rgb(100%, 61.621094%, 61.621094%)" stop-opacity="1"/><stop offset="0.429688" stop-color="rgb(100%, 62.22229%, 62.22229%)" stop-opacity="1"/><stop offset="0.433594" stop-color="rgb(100%, 62.823486%, 62.823486%)" stop-opacity="1"/><stop offset="0.4375" stop-color="rgb(100%, 63.426208%, 63.426208%)" stop-opacity="1"/><stop offset="0.441406" stop-color="rgb(100%, 64.027405%, 64.027405%)" stop-opacity="1"/><stop offset="0.445312" stop-color="rgb(100%, 64.630127%, 64.630127%)" stop-opacity="1"/><stop offset="0.449219" stop-color="rgb(100%, 65.231323%, 65.231323%)" stop-opacity="1"/><stop offset="0.453125" stop-color="rgb(100%, 65.83252%, 65.83252%)" stop-opacity="1"/><stop offset="0.457031" stop-color="rgb(100%, 66.433716%, 66.433716%)" stop-opacity="1"/><stop offset="0.460938" stop-color="rgb(100%, 67.036438%, 67.036438%)" stop-opacity="1"/><stop offset="0.464844" stop-color="rgb(100%, 67.637634%, 67.637634%)" stop-opacity="1"/><stop offset="0.46875" stop-color="rgb(100%, 68.238831%, 68.238831%)" stop-opacity="1"/><stop offset="0.472656" stop-color="rgb(100%, 68.840027%, 68.840027%)" stop-opacity="1"/><stop offset="0.476562" stop-color="rgb(100%, 69.442749%, 69.442749%)" stop-opacity="1"/><stop offset="0.480469" stop-color="rgb(100%, 70.043945%, 70.043945%)" stop-opacity="1"/><stop offset="0.484375" stop-color="rgb(100%, 70.646667%, 70.646667%)" stop-opacity="1"/><stop offset="0.488281" stop-color="rgb(100%, 71.247864%, 71.247864%)" stop-opacity="1"/><stop offset="0.492188" stop-color="rgb(100%, 71.84906%, 71.84906%)" stop-opacity="1"/><stop offset="0.496094" stop-color="rgb(100%, 72.450256%, 72.450256%)" stop-opacity="1"/><stop offset="0.5" stop-color="rgb(100%, 73.052979%, 73.052979%)" stop-opacity="1"/><stop offset="0.503906" stop-color="rgb(100%, 73.654175%, 73.654175%)" stop-opacity="1"/><stop offset="0.507812" stop-color="rgb(100%, 74.255371%, 74.255371%)" stop-opacity="1"/><stop offset="0.511719" stop-color="rgb(100%, 74.856567%, 74.856567%)" stop-opacity="1"/><stop offset="0.515625" stop-color="rgb(100%, 75.45929%, 75.45929%)" stop-opacity="1"/><stop offset="0.519531" stop-color="rgb(100%, 76.060486%, 76.060486%)" stop-opacity="1"/><stop offset="0.523438" stop-color="rgb(100%, 76.663208%, 76.663208%)" stop-opacity="1"/><stop offset="0.527344" stop-color="rgb(100%, 77.264404%, 77.264404%)" stop-opacity="1"/><stop offset="0.53125" stop-color="rgb(100%, 77.865601%, 77.865601%)" stop-opacity="1"/><stop offset="0.535156" stop-color="rgb(100%, 77.827454%, 77.827454%)" stop-opacity="1"/><stop offset="0.539062" stop-color="rgb(100%, 77.789307%, 77.789307%)" stop-opacity="1"/><stop offset="0.542969" stop-color="rgb(100%, 77.186584%, 77.186584%)" stop-opacity="1"/><stop offset="0.546875" stop-color="rgb(100%, 76.585388%, 76.585388%)" stop-opacity="1"/><stop offset="0.550781" stop-color="rgb(100%, 75.984192%, 75.984192%)" stop-opacity="1"/><stop offset="0.554688" stop-color="rgb(100%, 75.382996%, 75.382996%)" stop-opacity="1"/><stop offset="0.558594" stop-color="rgb(100%, 74.780273%, 74.780273%)" stop-opacity="1"/><stop offset="0.5625" stop-color="rgb(100%, 74.179077%, 74.179077%)" stop-opacity="1"/><stop offset="0.566406" stop-color="rgb(100%, 73.577881%, 73.577881%)" stop-opacity="1"/><stop offset="0.570312" stop-color="rgb(100%, 72.976685%, 72.976685%)" stop-opacity="1"/><stop offset="0.574219" stop-color="rgb(100%, 72.373962%, 72.373962%)" stop-opacity="1"/><stop offset="0.578125" stop-color="rgb(100%, 71.772766%, 71.772766%)" stop-opacity="1"/><stop offset="0.582031" stop-color="rgb(100%, 71.170044%, 71.170044%)" stop-opacity="1"/><stop offset="0.585937" stop-color="rgb(100%, 70.568848%, 70.568848%)" stop-opacity="1"/><stop offset="0.589844" stop-color="rgb(100%, 69.967651%, 69.967651%)" stop-opacity="1"/><stop offset="0.59375" stop-color="rgb(100%, 69.366455%, 69.366455%)" stop-opacity="1"/><stop offset="0.597656" stop-color="rgb(100%, 68.763733%, 68.763733%)" stop-opacity="1"/><stop offset="0.601562" stop-color="rgb(100%, 68.162537%, 68.162537%)" stop-opacity="1"/><stop offset="0.605469" stop-color="rgb(100%, 67.56134%, 67.56134%)" stop-opacity="1"/><stop offset="0.609375" stop-color="rgb(100%, 66.960144%, 66.960144%)" stop-opacity="1"/><stop offset="0.613281" stop-color="rgb(100%, 66.357422%, 66.357422%)" stop-opacity="1"/><stop offset="0.617188" stop-color="rgb(100%, 65.756226%, 65.756226%)" stop-opacity="1"/><stop offset="0.621094" stop-color="rgb(100%, 65.153503%, 65.153503%)" stop-opacity="1"/><stop offset="0.625" stop-color="rgb(100%, 64.552307%, 64.552307%)" stop-opacity="1"/><stop offset="0.628906" stop-color="rgb(100%, 63.951111%, 63.951111%)" stop-opacity="1"/><stop offset="0.632812" stop-color="rgb(100%, 63.349915%, 63.349915%)" stop-opacity="1"/><stop offset="0.636719" stop-color="rgb(100%, 62.747192%, 62.747192%)" stop-opacity="1"/><stop offset="0.640625" stop-color="rgb(100%, 62.145996%, 62.145996%)" stop-opacity="1"/><stop offset="0.644531" stop-color="rgb(100%, 61.5448%, 61.5448%)" stop-opacity="1"/><stop offset="0.648437" stop-color="rgb(100%, 60.943604%, 60.943604%)" stop-opacity="1"/><stop offset="0.652344" stop-color="rgb(100%, 60.340881%, 60.340881%)" stop-opacity="1"/><stop offset="0.65625" stop-color="rgb(100%, 59.739685%, 59.739685%)" stop-opacity="1"/><stop offset="0.660156" stop-color="rgb(100%, 59.136963%, 59.136963%)" stop-opacity="1"/><stop offset="0.664062" stop-color="rgb(100%, 58.535767%, 58.535767%)" stop-opacity="1"/><stop offset="0.667969" stop-color="rgb(100%, 57.93457%, 57.93457%)" stop-opacity="1"/><stop offset="0.671875" stop-color="rgb(100%, 57.333374%, 57.333374%)" stop-opacity="1"/><stop offset="0.675781" stop-color="rgb(100%, 56.730652%, 56.730652%)" stop-opacity="1"/><stop offset="0.679688" stop-color="rgb(100%, 56.129456%, 56.129456%)" stop-opacity="1"/><stop offset="0.683594" stop-color="rgb(100%, 55.528259%, 55.528259%)" stop-opacity="1"/><stop offset="0.6875" stop-color="rgb(100%, 54.927063%, 54.927063%)" stop-opacity="1"/><stop offset="0.691406" stop-color="rgb(100%, 54.324341%, 54.324341%)" stop-opacity="1"/><stop offset="0.695312" stop-color="rgb(100%, 53.723145%, 53.723145%)" stop-opacity="1"/><stop offset="0.699219" stop-color="rgb(100%, 53.121948%, 53.121948%)" stop-opacity="1"/><stop offset="0.703125" stop-color="rgb(100%, 52.520752%, 52.520752%)" stop-opacity="1"/><stop offset="0.707031" stop-color="rgb(100%, 51.91803%, 51.91803%)" stop-opacity="1"/><stop offset="0.710937" stop-color="rgb(100%, 51.316833%, 51.316833%)" stop-opacity="1"/><stop offset="0.714844" stop-color="rgb(100%, 50.714111%, 50.714111%)" stop-opacity="1"/><stop offset="0.71875" stop-color="rgb(100%, 50.112915%, 50.112915%)" stop-opacity="1"/><stop offset="0.722656" stop-color="rgb(100%, 49.511719%, 49.511719%)" stop-opacity="1"/><stop offset="0.726562" stop-color="rgb(100%, 48.910522%, 48.910522%)" stop-opacity="1"/><stop offset="0.730469" stop-color="rgb(100%, 48.3078%, 48.3078%)" stop-opacity="1"/><stop offset="0.734375" stop-color="rgb(100%, 47.706604%, 47.706604%)" stop-opacity="1"/><stop offset="0.738281" stop-color="rgb(100%, 47.105408%, 47.105408%)" stop-opacity="1"/><stop offset="0.742188" stop-color="rgb(100%, 46.504211%, 46.504211%)" stop-opacity="1"/><stop offset="0.746094" stop-color="rgb(100%, 45.901489%, 45.901489%)" stop-opacity="1"/><stop offset="0.75" stop-color="rgb(100%, 45.300293%, 45.300293%)" stop-opacity="1"/><stop offset="0.753906" stop-color="rgb(100%, 44.697571%, 44.697571%)" stop-opacity="1"/><stop offset="0.757812" stop-color="rgb(100%, 44.096375%, 44.096375%)" stop-opacity="1"/><stop offset="0.761719" stop-color="rgb(100%, 43.495178%, 43.495178%)" stop-opacity="1"/><stop offset="0.765625" stop-color="rgb(100%, 42.893982%, 42.893982%)" stop-opacity="1"/><stop offset="0.769531" stop-color="rgb(100%, 42.29126%, 42.29126%)" stop-opacity="1"/><stop offset="0.773437" stop-color="rgb(100%, 41.690063%, 41.690063%)" stop-opacity="1"/><stop offset="0.777344" stop-color="rgb(100%, 41.088867%, 41.088867%)" stop-opacity="1"/><stop offset="0.78125" stop-color="rgb(100%, 40.487671%, 40.487671%)" stop-opacity="1"/><stop offset="0.785156" stop-color="rgb(100%, 39.884949%, 39.884949%)" stop-opacity="1"/><stop offset="0.789062" stop-color="rgb(100%, 39.283752%, 39.283752%)" stop-opacity="1"/><stop offset="0.792969" stop-color="rgb(100%, 38.68103%, 38.68103%)" stop-opacity="1"/><stop offset="0.796875" stop-color="rgb(100%, 38.079834%, 38.079834%)" stop-opacity="1"/><stop offset="0.800781" stop-color="rgb(100%, 37.478638%, 37.478638%)" stop-opacity="1"/><stop offset="0.804688" stop-color="rgb(100%, 36.877441%, 36.877441%)" stop-opacity="1"/><stop offset="0.808594" stop-color="rgb(100%, 36.274719%, 36.274719%)" stop-opacity="1"/><stop offset="0.8125" stop-color="rgb(100%, 35.673523%, 35.673523%)" stop-opacity="1"/><stop offset="0.816406" stop-color="rgb(100%, 35.090637%, 35.090637%)" stop-opacity="1"/><stop offset="0.820313" stop-color="rgb(100%, 34.509277%, 34.509277%)" stop-opacity="1"/><stop offset="0.828125" stop-color="rgb(100%, 34.509277%, 34.509277%)" stop-opacity="1"/><stop offset="0.84375" stop-color="rgb(100%, 34.509277%, 34.509277%)" stop-opacity="1"/><stop offset="0.875" stop-color="rgb(100%, 34.509277%, 34.509277%)" stop-opacity="1"/><stop offset="1" stop-color="rgb(100%, 34.509277%, 34.509277%)" stop-opacity="1"/></linearGradient><clipPath id="1915f0176a"><rect height="209" y="0" width="313" x="0"/></clipPath><clipPath id="f32e4b0ce5"><path clip-rule="nonzero" d="M 0.988281 0.417969 L 313 0.417969 L 313 208.582031 L 0.988281 208.582031 Z M 0.988281 0.417969"/></clipPath><clipPath id="e76d530b4f"><rect height="209" y="0" width="313" x="0"/></clipPath><clipPath id="89ab7062e2"><rect height="209" y="0" width="313" x="0"/></clipPath><mask id="4bca3722f0"><g filter="url(#b99ad08631)"><g transform="matrix(1, 0, 0, 1, -0.000000000000007105, 0)"><g clip-path="url(#89ab7062e2)"><g clip-path="url(#f32e4b0ce5)"><g transform="matrix(1, 0, 0, 1, -0.000000000000007105, 0)"><g clip-path="url(#e76d530b4f)"><g fill-opacity="1" fill="#000000"><g transform="translate(81.441251, 117.386216)"><g><path d="M 2 -20.8125 C 2 -21.738281 2.082031 -22.457031 2.25 -22.96875 C 2.414062 -23.488281 2.71875 -23.976562 3.15625 -24.4375 C 3.59375 -24.875 4.082031 -25.191406 4.625 -25.390625 C 5.164062 -25.597656 5.832031 -25.703125 6.625 -25.703125 L 10.171875 -25.703125 C 11.203125 -25.703125 12.101562 -25.671875 12.875 -25.609375 C 13.644531 -25.546875 14.320312 -25.4375 14.90625 -25.28125 C 15.5 -25.132812 16.046875 -24.9375 16.546875 -24.6875 C 17.054688 -24.445312 17.554688 -24.132812 18.046875 -23.75 C 19.203125 -22.875 20.09375 -21.789062 20.71875 -20.5 C 21.34375 -19.21875 21.65625 -17.859375 21.65625 -16.421875 C 21.65625 -14.984375 21.328125 -13.617188 20.671875 -12.328125 C 20.023438 -11.046875 19.109375 -9.957031 17.921875 -9.0625 C 17.046875 -8.394531 16.144531 -7.914062 15.21875 -7.625 C 14.300781 -7.34375 13.210938 -7.203125 11.953125 -7.203125 L 10.515625 -7.203125 L 10.515625 -4.703125 C 10.515625 -3.234375 10.128906 -2.050781 9.359375 -1.15625 C 8.585938 -0.257812 7.5625 0.1875 6.28125 0.1875 C 5.5625 0.1875 4.882812 0.015625 4.25 -0.328125 C 3.625 -0.671875 3.117188 -1.140625 2.734375 -1.734375 C 2.578125 -1.992188 2.445312 -2.234375 2.34375 -2.453125 C 2.25 -2.671875 2.175781 -2.910156 2.125 -3.171875 C 2.070312 -3.441406 2.035156 -3.78125 2.015625 -4.1875 C 2.003906 -4.601562 2 -5.132812 2 -5.78125 Z M 10.515625 -15.078125 C 11.546875 -15.023438 12.273438 -15.097656 12.703125 -15.296875 C 13.128906 -15.503906 13.34375 -15.90625 13.34375 -16.5 C 13.34375 -16.9375 13.160156 -17.269531 12.796875 -17.5 C 12.441406 -17.726562 11.941406 -17.84375 11.296875 -17.84375 L 10.515625 -17.84375 Z M 10.515625 -15.078125"/></g></g></g><g fill-opacity="1" fill="#000000"><g transform="translate(102.022578, 117.386216)"><g><path d="M 9.296875 -3.359375 C 8.753906 -2.097656 8.140625 -1.191406 7.453125 -0.640625 C 6.773438 -0.0859375 5.921875 0.1875 4.890625 0.1875 C 4.304688 0.1875 3.753906 0.078125 3.234375 -0.140625 C 2.722656 -0.359375 2.28125 -0.660156 1.90625 -1.046875 C 1.53125 -1.429688 1.234375 -1.878906 1.015625 -2.390625 C 0.796875 -2.898438 0.6875 -3.453125 0.6875 -4.046875 C 0.6875 -4.765625 0.867188 -5.507812 1.234375 -6.28125 L 9.296875 -23.359375 C 9.648438 -24.148438 10.171875 -24.769531 10.859375 -25.21875 C 11.554688 -25.675781 12.332031 -25.90625 13.1875 -25.90625 C 14.0625 -25.90625 14.84375 -25.675781 15.53125 -25.21875 C 16.226562 -24.769531 16.769531 -24.140625 17.15625 -23.328125 L 25.25 -6.046875 C 25.582031 -5.410156 25.75 -4.734375 25.75 -4.015625 C 25.75 -3.421875 25.632812 -2.875 25.40625 -2.375 C 25.175781 -1.875 24.867188 -1.429688 24.484375 -1.046875 C 24.097656 -0.660156 23.644531 -0.359375 23.125 -0.140625 C 22.613281 0.078125 22.0625 0.1875 21.46875 0.1875 C 20.488281 0.1875 19.671875 -0.0703125 19.015625 -0.59375 C 18.367188 -1.125 17.75 -2.046875 17.15625 -3.359375 Z M 14.5 -9.484375 L 13.1875 -12.5625 L 11.875 -9.484375 Z M 14.5 -9.484375"/></g></g></g><g fill-opacity="1" fill="#000000"><g transform="translate(125.64863, 117.386216)"><g><path d="M 1.15625 -19.890625 C 1 -20.253906 0.875 -20.617188 0.78125 -20.984375 C 0.695312 -21.359375 0.65625 -21.648438 0.65625 -21.859375 C 0.65625 -22.421875 0.769531 -22.945312 1 -23.4375 C 1.226562 -23.925781 1.535156 -24.347656 1.921875 -24.703125 C 2.304688 -25.066406 2.753906 -25.359375 3.265625 -25.578125 C 3.785156 -25.796875 4.34375 -25.90625 4.9375 -25.90625 C 6.914062 -25.90625 8.367188 -24.757812 9.296875 -22.46875 L 12.03125 -15.953125 L 14.296875 -22.703125 C 15.015625 -24.835938 16.390625 -25.90625 18.421875 -25.90625 C 20.453125 -25.90625 21.851562 -24.800781 22.625 -22.59375 L 25.015625 -15.765625 L 27.828125 -22.96875 C 28.191406 -23.875 28.742188 -24.585938 29.484375 -25.109375 C 30.234375 -25.640625 31.070312 -25.90625 32 -25.90625 C 32.582031 -25.90625 33.128906 -25.796875 33.640625 -25.578125 C 34.160156 -25.359375 34.613281 -25.0625 35 -24.6875 C 35.382812 -24.3125 35.6875 -23.867188 35.90625 -23.359375 C 36.125 -22.847656 36.234375 -22.296875 36.234375 -21.703125 C 36.234375 -21.441406 36.203125 -21.171875 36.140625 -20.890625 C 36.078125 -20.609375 35.941406 -20.210938 35.734375 -19.703125 L 29.640625 -3.125 C 28.847656 -0.914062 27.488281 0.1875 25.5625 0.1875 C 23.550781 0.1875 22.175781 -0.890625 21.4375 -3.046875 L 18.578125 -11.484375 L 15.765625 -3.078125 C 15.046875 -0.898438 13.695312 0.1875 11.71875 0.1875 C 9.757812 0.1875 8.421875 -0.785156 7.703125 -2.734375 Z M 1.15625 -19.890625"/></g></g></g><g fill-opacity="1" fill="#000000"><g transform="translate(162.495275, 117.386216)"><g><path d="M 2 -20.8125 C 2 -21.738281 2.082031 -22.457031 2.25 -22.96875 C 2.414062 -23.488281 2.71875 -23.976562 3.15625 -24.4375 C 3.59375 -24.875 4.082031 -25.191406 4.625 -25.390625 C 5.164062 -25.597656 5.832031 -25.703125 6.625 -25.703125 L 10.171875 -25.703125 C 11.203125 -25.703125 12.101562 -25.671875 12.875 -25.609375 C 13.644531 -25.546875 14.320312 -25.4375 14.90625 -25.28125 C 15.5 -25.132812 16.046875 -24.9375 16.546875 -24.6875 C 17.054688 -24.445312 17.554688 -24.132812 18.046875 -23.75 C 19.203125 -22.875 20.09375 -21.789062 20.71875 -20.5 C 21.34375 -19.21875 21.65625 -17.859375 21.65625 -16.421875 C 21.65625 -14.984375 21.328125 -13.617188 20.671875 -12.328125 C 20.023438 -11.046875 19.109375 -9.957031 17.921875 -9.0625 C 17.046875 -8.394531 16.144531 -7.914062 15.21875 -7.625 C 14.300781 -7.34375 13.210938 -7.203125 11.953125 -7.203125 L 10.515625 -7.203125 L 10.515625 -4.703125 C 10.515625 -3.234375 10.128906 -2.050781 9.359375 -1.15625 C 8.585938 -0.257812 7.5625 0.1875 6.28125 0.1875 C 5.5625 0.1875 4.882812 0.015625 4.25 -0.328125 C 3.625 -0.671875 3.117188 -1.140625 2.734375 -1.734375 C 2.578125 -1.992188 2.445312 -2.234375 2.34375 -2.453125 C 2.25 -2.671875 2.175781 -2.910156 2.125 -3.171875 C 2.070312 -3.441406 2.035156 -3.78125 2.015625 -4.1875 C 2.003906 -4.601562 2 -5.132812 2 -5.78125 Z M 10.515625 -15.078125 C 11.546875 -15.023438 12.273438 -15.097656 12.703125 -15.296875 C 13.128906 -15.503906 13.34375 -15.90625 13.34375 -16.5 C 13.34375 -16.9375 13.160156 -17.269531 12.796875 -17.5 C 12.441406 -17.726562 11.941406 -17.84375 11.296875 -17.84375 L 10.515625 -17.84375 Z M 10.515625 -15.078125"/></g></g></g><g fill-opacity="1" fill="#000000"><g transform="translate(183.076602, 117.386216)"><g><path d="M 9.296875 -3.359375 C 8.753906 -2.097656 8.140625 -1.191406 7.453125 -0.640625 C 6.773438 -0.0859375 5.921875 0.1875 4.890625 0.1875 C 4.304688 0.1875 3.753906 0.078125 3.234375 -0.140625 C 2.722656 -0.359375 2.28125 -0.660156 1.90625 -1.046875 C 1.53125 -1.429688 1.234375 -1.878906 1.015625 -2.390625 C 0.796875 -2.898438 0.6875 -3.453125 0.6875 -4.046875 C 0.6875 -4.765625 0.867188 -5.507812 1.234375 -6.28125 L 9.296875 -23.359375 C 9.648438 -24.148438 10.171875 -24.769531 10.859375 -25.21875 C 11.554688 -25.675781 12.332031 -25.90625 13.1875 -25.90625 C 14.0625 -25.90625 14.84375 -25.675781 15.53125 -25.21875 C 16.226562 -24.769531 16.769531 -24.140625 17.15625 -23.328125 L 25.25 -6.046875 C 25.582031 -5.410156 25.75 -4.734375 25.75 -4.015625 C 25.75 -3.421875 25.632812 -2.875 25.40625 -2.375 C 25.175781 -1.875 24.867188 -1.429688 24.484375 -1.046875 C 24.097656 -0.660156 23.644531 -0.359375 23.125 -0.140625 C 22.613281 0.078125 22.0625 0.1875 21.46875 0.1875 C 20.488281 0.1875 19.671875 -0.0703125 19.015625 -0.59375 C 18.367188 -1.125 17.75 -2.046875 17.15625 -3.359375 Z M 14.5 -9.484375 L 13.1875 -12.5625 L 11.875 -9.484375 Z M 14.5 -9.484375"/></g></g></g><g fill-opacity="1" fill="#000000"><g transform="translate(209.516771, 117.386216)"><g><path d="M 10.484375 -7.59375 L 10.484375 -4.09375 C 10.484375 -3.46875 10.375 -2.898438 10.15625 -2.390625 C 9.9375 -1.878906 9.640625 -1.429688 9.265625 -1.046875 C 8.898438 -0.660156 8.460938 -0.359375 7.953125 -0.140625 C 7.453125 0.078125 6.910156 0.1875 6.328125 0.1875 C 5.679688 0.1875 5.0625 0.0546875 4.46875 -0.203125 C 3.875 -0.472656 3.382812 -0.851562 3 -1.34375 C 2.332031 -2.195312 2 -3.40625 2 -4.96875 L 2 -20.8125 C 2 -21.738281 2.101562 -22.488281 2.3125 -23.0625 C 2.519531 -23.644531 2.878906 -24.15625 3.390625 -24.59375 C 3.878906 -25.03125 4.382812 -25.320312 4.90625 -25.46875 C 5.4375 -25.625 6.21875 -25.703125 7.25 -25.703125 L 10.796875 -25.703125 C 11.847656 -25.703125 12.65625 -25.671875 13.21875 -25.609375 C 13.78125 -25.546875 14.347656 -25.453125 14.921875 -25.328125 C 15.921875 -25.046875 16.832031 -24.617188 17.65625 -24.046875 C 18.476562 -23.484375 19.179688 -22.8125 19.765625 -22.03125 C 20.359375 -21.25 20.820312 -20.378906 21.15625 -19.421875 C 21.488281 -18.472656 21.65625 -17.484375 21.65625 -16.453125 C 21.65625 -15.222656 21.441406 -14.097656 21.015625 -13.078125 C 20.597656 -12.066406 19.898438 -11.007812 18.921875 -9.90625 L 20.9375 -6.703125 C 21.21875 -6.265625 21.421875 -5.804688 21.546875 -5.328125 C 21.671875 -4.859375 21.734375 -4.40625 21.734375 -3.96875 C 21.734375 -3.375 21.625 -2.828125 21.40625 -2.328125 C 21.1875 -1.828125 20.882812 -1.390625 20.5 -1.015625 C 20.113281 -0.648438 19.664062 -0.359375 19.15625 -0.140625 C 18.644531 0.078125 18.09375 0.1875 17.5 0.1875 C 15.957031 0.1875 14.789062 -0.460938 14 -1.765625 Z M 10.828125 -15.078125 L 11.40625 -15.078125 C 12.695312 -15.023438 13.34375 -15.472656 13.34375 -16.421875 C 13.34375 -17.398438 12.6875 -17.863281 11.375 -17.8125 C 11.269531 -17.8125 11.144531 -17.8125 11 -17.8125 C 10.863281 -17.8125 10.691406 -17.820312 10.484375 -17.84375 L 10.484375 -15.078125 Z M 10.828125 -15.078125"/></g></g></g><g fill-opacity="1" fill="#000000"><g transform="translate(232.719377, 117.386216)"><g><path d="M 10.5625 -9.140625 L 10.5625 -4.703125 C 10.5625 -3.210938 10.175781 -2.023438 9.40625 -1.140625 C 8.632812 -0.253906 7.609375 0.1875 6.328125 0.1875 C 4.984375 0.1875 3.925781 -0.242188 3.15625 -1.109375 C 2.382812 -1.984375 2 -3.171875 2 -4.671875 L 2 -21.15625 C 2 -22.570312 2.382812 -23.71875 3.15625 -24.59375 C 3.925781 -25.46875 4.957031 -25.90625 6.25 -25.90625 C 6.863281 -25.90625 7.453125 -25.773438 8.015625 -25.515625 C 8.578125 -25.253906 9.050781 -24.910156 9.4375 -24.484375 C 9.851562 -24.046875 10.144531 -23.566406 10.3125 -23.046875 C 10.476562 -22.535156 10.5625 -21.894531 10.5625 -21.125 L 10.5625 -17 L 15.265625 -23.9375 C 16.140625 -25.25 17.304688 -25.90625 18.765625 -25.90625 C 19.335938 -25.90625 19.882812 -25.785156 20.40625 -25.546875 C 20.9375 -25.316406 21.394531 -25.007812 21.78125 -24.625 C 22.164062 -24.238281 22.472656 -23.789062 22.703125 -23.28125 C 22.929688 -22.769531 23.046875 -22.226562 23.046875 -21.65625 C 23.046875 -20.8125 22.828125 -20.066406 22.390625 -19.421875 L 18.078125 -13.140625 L 23.328125 -6.4375 C 23.859375 -5.769531 24.125 -5 24.125 -4.125 C 24.125 -3.53125 24.007812 -2.96875 23.78125 -2.4375 C 23.550781 -1.914062 23.242188 -1.460938 22.859375 -1.078125 C 22.472656 -0.691406 22.019531 -0.382812 21.5 -0.15625 C 20.988281 0.0703125 20.453125 0.1875 19.890625 0.1875 C 19.296875 0.1875 18.726562 0.0703125 18.1875 -0.15625 C 17.65625 -0.382812 17.234375 -0.691406 16.921875 -1.078125 Z M 10.5625 -9.140625"/></g></g></g></g></g></g></g></g></g></mask><clipPath id="bd4f04fe75"><path clip-rule="nonzero" d="M 4.457031 3.394531 L 313 3.394531 L 313 204.617188 L 4.457031 204.617188 Z M 4.457031 3.394531"/></clipPath><clipPath id="6a3c7163cd"><rect height="209" y="0" width="313" x="0"/></clipPath><clipPath id="f5cd6be292"><rect height="209" y="0" width="313" x="0"/></clipPath><clipPath id="a7e81345fc"><rect height="209" y="0" width="313" x="0"/></clipPath></defs><path fill-rule="nonzero" fill-opacity="1" d="M 63.339844 169.457031 C 68.976562 171.789062 72.128906 177.109375 70.375 181.339844 C 68.621094 185.566406 62.636719 187.101562 57 184.765625 C 51.363281 182.429688 48.214844 177.109375 49.964844 172.878906 C 51.714844 168.65625 57.707031 167.121094 63.339844 169.457031 Z M 110.683594 181.335938 C 112.4375 185.5625 118.425781 187.097656 124.0625 184.765625 C 129.699219 182.429688 132.847656 177.109375 131.097656 172.878906 C 129.34375 168.65625 123.355469 167.121094 117.71875 169.453125 C 112.082031 171.789062 108.933594 177.109375 110.683594 181.335938 Z M 74.699219 154.328125 C 70.472656 156.078125 68.9375 162.070312 71.277344 167.703125 C 73.613281 173.335938 78.929688 176.492188 83.15625 174.742188 C 87.382812 172.988281 88.917969 167 86.582031 161.363281 C 84.246094 155.726562 78.929688 152.578125 74.699219 154.328125 Z M 97.90625 174.742188 C 102.132812 176.492188 107.453125 173.34375 109.789062 167.707031 C 112.125 162.070312 110.585938 156.078125 106.359375 154.328125 C 102.132812 152.578125 96.8125 155.726562 94.476562 161.363281 C 92.144531 167 93.679688 172.988281 97.90625 174.742188 Z M 86.988281 207.191406 C 86.550781 206.8125 86.117188 206.410156 85.695312 205.984375 C 84.136719 204.425781 82.855469 202.773438 81.878906 201.140625 C 79.507812 197.179688 78.960938 193.363281 80.851562 191.464844 C 82.742188 189.574219 86.566406 190.121094 90.527344 192.496094 C 94.488281 190.121094 98.316406 189.570312 100.207031 191.464844 C 102.097656 193.363281 101.550781 197.179688 99.179688 201.140625 C 98.203125 202.773438 96.917969 204.425781 95.359375 205.984375 C 94.941406 206.410156 94.503906 206.8125 94.066406 207.191406 C 106.570312 209.5 116.199219 222.421875 116.199219 206.855469 C 116.199219 189.84375 104.707031 176.050781 90.527344 176.050781 C 76.34375 176.050781 64.851562 189.84375 64.851562 206.855469 C 64.859375 222.421875 74.488281 209.5 86.988281 207.191406 Z M 86.988281 207.191406" fill="#ff5858"/><g transform="matrix(1, 0, 0, 1, 62, 83)"><g clip-path="url(#a7e81345fc)"><g fill-opacity="1" fill="#ffffff"><g transform="translate(81.441251, 117.386216)"><g><path d="M -0.0898438 -20.816406 C -0.0898438 -21.964844 0.0273438 -22.898438 0.261719 -23.625 C 0.527344 -24.4375 0.984375 -25.1875 1.636719 -25.878906 L 1.65625 -25.902344 L 1.679688 -25.921875 C 2.328125 -26.570312 3.0625 -27.050781 3.878906 -27.363281 C 4.660156 -27.660156 5.578125 -27.808594 6.628906 -27.808594 L 10.175781 -27.808594 C 11.261719 -27.808594 12.222656 -27.773438 13.050781 -27.707031 C 13.941406 -27.632812 14.738281 -27.5 15.449219 -27.316406 C 16.171875 -27.128906 16.847656 -26.878906 17.476562 -26.574219 C 18.113281 -26.265625 18.734375 -25.871094 19.339844 -25.390625 C 20.738281 -24.335938 21.828125 -23.015625 22.601562 -21.429688 C 23.375 -19.855469 23.761719 -18.183594 23.761719 -16.421875 C 23.761719 -14.648438 23.355469 -12.96875 22.550781 -11.382812 C 21.75 -9.8125 20.632812 -8.484375 19.195312 -7.390625 C 18.125 -6.570312 17.003906 -5.984375 15.839844 -5.628906 C 14.714844 -5.285156 13.417969 -5.113281 11.949219 -5.113281 L 10.523438 -5.113281 L 10.523438 -7.207031 L 12.621094 -7.207031 L 12.621094 -4.703125 C 12.621094 -2.722656 12.066406 -1.085938 10.960938 0.207031 C 9.769531 1.59375 8.210938 2.289062 6.285156 2.289062 C 5.203125 2.289062 4.191406 2.027344 3.25 1.507812 C 2.3125 0.992188 1.558594 0.292969 0.980469 -0.589844 L 0.960938 -0.621094 L 0.941406 -0.65625 C 0.75 -0.972656 0.585938 -1.273438 0.453125 -1.554688 C 0.277344 -1.933594 0.144531 -2.34375 0.0625 -2.789062 C -0.0117188 -3.164062 -0.0546875 -3.617188 -0.0703125 -4.136719 C -0.0859375 -4.570312 -0.0898438 -5.117188 -0.0898438 -5.78125 Z M 4.101562 -20.816406 L 4.101562 -5.78125 C 4.101562 -5.160156 4.105469 -4.65625 4.117188 -4.265625 C 4.128906 -3.964844 4.148438 -3.734375 4.179688 -3.574219 C 4.199219 -3.476562 4.222656 -3.398438 4.25 -3.339844 C 4.320312 -3.1875 4.417969 -3.011719 4.535156 -2.8125 L 2.738281 -1.734375 L 4.492188 -2.878906 C 4.6875 -2.582031 4.949219 -2.34375 5.269531 -2.164062 C 5.585938 -1.988281 5.921875 -1.902344 6.285156 -1.902344 C 6.925781 -1.902344 7.421875 -2.109375 7.777344 -2.519531 C 8.210938 -3.027344 8.429688 -3.753906 8.429688 -4.703125 L 8.429688 -9.304688 L 11.949219 -9.304688 C 13 -9.304688 13.890625 -9.414062 14.613281 -9.636719 C 15.300781 -9.847656 15.980469 -10.210938 16.65625 -10.726562 C 17.585938 -11.433594 18.304688 -12.289062 18.816406 -13.289062 C 19.316406 -14.273438 19.570312 -15.320312 19.570312 -16.421875 C 19.570312 -17.539062 19.324219 -18.59375 18.839844 -19.585938 C 18.355469 -20.570312 17.65625 -21.410156 16.742188 -22.101562 C 16.371094 -22.394531 16.003906 -22.628906 15.640625 -22.804688 C 15.261719 -22.988281 14.847656 -23.140625 14.390625 -23.261719 C 13.914062 -23.382812 13.351562 -23.472656 12.703125 -23.527344 C 11.988281 -23.585938 11.148438 -23.617188 10.175781 -23.617188 L 6.628906 -23.617188 C 6.089844 -23.617188 5.671875 -23.558594 5.371094 -23.445312 C 5.113281 -23.347656 4.867188 -23.183594 4.644531 -22.957031 L 3.160156 -24.441406 L 4.683594 -23 C 4.464844 -22.765625 4.320312 -22.542969 4.25 -22.328125 C 4.148438 -22.023438 4.101562 -21.519531 4.101562 -20.816406 Z M 10.628906 -17.167969 C 11.035156 -17.144531 11.363281 -17.148438 11.617188 -17.175781 C 11.707031 -17.1875 11.773438 -17.195312 11.828125 -17.210938 C 11.835938 -17.210938 11.839844 -17.214844 11.839844 -17.214844 C 11.828125 -17.207031 11.808594 -17.199219 11.789062 -17.191406 C 11.589844 -17.09375 11.4375 -16.945312 11.328125 -16.742188 C 11.289062 -16.667969 11.261719 -16.597656 11.25 -16.53125 C 11.246094 -16.515625 11.242188 -16.5 11.242188 -16.492188 C 11.242188 -16.492188 11.242188 -16.492188 11.242188 -16.5 C 11.242188 -16.367188 11.28125 -16.226562 11.359375 -16.082031 C 11.4375 -15.933594 11.542969 -15.816406 11.664062 -15.738281 C 11.6875 -15.726562 11.703125 -15.714844 11.71875 -15.710938 C 11.710938 -15.710938 11.699219 -15.714844 11.679688 -15.71875 C 11.585938 -15.742188 11.457031 -15.753906 11.296875 -15.753906 L 10.523438 -15.753906 L 10.523438 -17.847656 L 12.621094 -17.847656 L 12.621094 -15.074219 L 10.523438 -15.074219 Z M 8.429688 -13.078125 L 8.429688 -19.945312 L 11.296875 -19.945312 C 12.347656 -19.945312 13.226562 -19.71875 13.933594 -19.265625 C 14.414062 -18.953125 14.789062 -18.554688 15.050781 -18.070312 C 15.304688 -17.59375 15.433594 -17.070312 15.433594 -16.5 C 15.433594 -15.855469 15.300781 -15.277344 15.03125 -14.773438 C 14.710938 -14.171875 14.238281 -13.71875 13.617188 -13.417969 C 12.871094 -13.054688 11.804688 -12.910156 10.417969 -12.980469 Z M 8.429688 -13.078125"/></g></g></g><g fill-opacity="1" fill="#ffffff"><g transform="translate(102.022578, 117.386216)"><g><path d="M 11.21875 -2.527344 C 10.542969 -0.953125 9.730469 0.222656 8.78125 0.992188 C 7.714844 1.855469 6.417969 2.289062 4.894531 2.289062 C 4.019531 2.289062 3.195312 2.125 2.417969 1.792969 C 1.644531 1.464844 0.972656 1.003906 0.402344 0.417969 C -0.152344 -0.15625 -0.589844 -0.816406 -0.90625 -1.570312 C -1.238281 -2.347656 -1.402344 -3.171875 -1.402344 -4.046875 C -1.402344 -5.078125 -1.15625 -6.117188 -0.664062 -7.171875 L 7.394531 -24.253906 C 7.914062 -25.40625 8.691406 -26.316406 9.730469 -26.988281 C 10.773438 -27.664062 11.921875 -28 13.183594 -28 C 14.472656 -28 15.636719 -27.664062 16.675781 -26.988281 C 17.707031 -26.324219 18.496094 -25.398438 19.050781 -24.210938 L 27.148438 -6.941406 L 25.25 -6.050781 L 27.109375 -7.019531 C 27.601562 -6.074219 27.847656 -5.070312 27.847656 -4.007812 C 27.847656 -3.109375 27.667969 -2.273438 27.308594 -1.492188 C 26.972656 -0.765625 26.523438 -0.121094 25.960938 0.441406 C 25.382812 1.019531 24.714844 1.46875 23.949219 1.792969 C 23.171875 2.125 22.347656 2.289062 21.472656 2.289062 C 20.003906 2.289062 18.75 1.871094 17.710938 1.035156 C 16.792969 0.300781 15.972656 -0.875 15.242188 -2.492188 L 17.15625 -3.355469 L 17.15625 -1.257812 L 9.289062 -1.257812 L 9.289062 -3.355469 Z M 7.90625 -5.449219 L 18.507812 -5.449219 L 19.066406 -4.214844 C 19.519531 -3.210938 19.941406 -2.546875 20.335938 -2.230469 C 20.609375 -2.011719 20.988281 -1.902344 21.472656 -1.902344 C 21.777344 -1.902344 22.058594 -1.957031 22.308594 -2.0625 C 22.574219 -2.175781 22.804688 -2.328125 22.996094 -2.523438 C 23.207031 -2.730469 23.375 -2.972656 23.5 -3.25 C 23.605469 -3.472656 23.65625 -3.726562 23.65625 -4.007812 C 23.65625 -4.386719 23.566406 -4.746094 23.390625 -5.085938 L 23.371094 -5.125 L 15.257812 -22.433594 C 15.039062 -22.894531 14.753906 -23.238281 14.394531 -23.472656 C 14.046875 -23.695312 13.644531 -23.808594 13.183594 -23.808594 C 12.75 -23.808594 12.359375 -23.695312 12.011719 -23.472656 C 11.660156 -23.246094 11.386719 -22.910156 11.1875 -22.464844 L 3.132812 -5.398438 C 2.90625 -4.90625 2.789062 -4.457031 2.789062 -4.046875 C 2.789062 -3.742188 2.84375 -3.460938 2.949219 -3.210938 C 3.066406 -2.933594 3.222656 -2.695312 3.414062 -2.496094 C 3.589844 -2.316406 3.804688 -2.171875 4.058594 -2.0625 C 4.308594 -1.957031 4.589844 -1.902344 4.894531 -1.902344 C 5.429688 -1.902344 5.84375 -2.023438 6.136719 -2.265625 C 6.550781 -2.597656 6.960938 -3.238281 7.363281 -4.179688 Z M 12.566406 -8.664062 L 11.253906 -11.746094 L 13.183594 -12.566406 L 15.113281 -11.746094 L 13.800781 -8.664062 L 11.875 -9.484375 L 11.875 -11.578125 L 14.496094 -11.578125 L 14.496094 -9.484375 Z M 17.664062 -7.386719 L 8.703125 -7.386719 L 13.183594 -17.925781 L 16.425781 -10.304688 Z M 17.664062 -7.386719"/></g></g></g><g fill-opacity="1" fill="#ffffff"><g transform="translate(125.64863, 117.386216)"><g><path d="M -0.769531 -19.066406 C -0.972656 -19.535156 -1.128906 -20.011719 -1.246094 -20.5 C -1.375 -21.03125 -1.441406 -21.484375 -1.441406 -21.859375 C -1.441406 -22.738281 -1.257812 -23.5625 -0.890625 -24.335938 C -0.546875 -25.066406 -0.0820312 -25.699219 0.496094 -26.242188 C 1.0625 -26.769531 1.714844 -27.191406 2.457031 -27.507812 C 3.234375 -27.835938 4.058594 -28 4.933594 -28 C 6.40625 -28 7.699219 -27.566406 8.804688 -26.695312 C 9.820312 -25.894531 10.632812 -24.75 11.234375 -23.261719 L 13.960938 -16.769531 L 12.027344 -15.960938 L 10.042969 -16.628906 L 12.316406 -23.375 C 12.808594 -24.839844 13.566406 -25.96875 14.589844 -26.761719 C 15.652344 -27.589844 16.933594 -28 18.425781 -28 C 19.925781 -28 21.21875 -27.574219 22.296875 -26.722656 C 23.320312 -25.917969 24.089844 -24.769531 24.609375 -23.28125 L 26.996094 -16.460938 L 25.019531 -15.765625 L 23.066406 -16.527344 L 25.878906 -23.738281 C 26.398438 -25.03125 27.199219 -26.0625 28.28125 -26.828125 C 29.386719 -27.609375 30.625 -28 31.996094 -28 C 32.871094 -28 33.699219 -27.835938 34.472656 -27.507812 C 35.226562 -27.1875 35.886719 -26.75 36.460938 -26.199219 C 37.050781 -25.628906 37.507812 -24.957031 37.839844 -24.179688 C 38.167969 -23.40625 38.332031 -22.578125 38.332031 -21.703125 C 38.332031 -21.289062 38.285156 -20.863281 38.183594 -20.429688 C 38.097656 -20.039062 37.929688 -19.535156 37.683594 -18.921875 L 35.734375 -19.699219 L 37.703125 -18.976562 L 31.613281 -2.398438 C 31.085938 -0.9375 30.328125 0.195312 29.347656 0.992188 C 28.28125 1.855469 27.019531 2.289062 25.558594 2.289062 C 24.074219 2.289062 22.796875 1.871094 21.730469 1.03125 C 20.71875 0.238281 19.960938 -0.894531 19.453125 -2.363281 L 16.59375 -10.816406 L 18.582031 -11.488281 L 20.570312 -10.820312 L 17.753906 -2.417969 C 17.269531 -0.941406 16.527344 0.199219 15.535156 1.003906 C 14.476562 1.859375 13.203125 2.289062 11.71875 2.289062 C 10.285156 2.289062 9.050781 1.910156 8.015625 1.152344 C 7.007812 0.414062 6.25 -0.640625 5.742188 -2.011719 L -0.800781 -19.144531 L 1.15625 -19.890625 Z M 3.101562 -20.679688 L 9.675781 -3.460938 C 9.890625 -2.882812 10.160156 -2.472656 10.488281 -2.230469 C 10.789062 -2.011719 11.199219 -1.902344 11.71875 -1.902344 C 12.214844 -1.902344 12.605469 -2.019531 12.894531 -2.253906 C 13.25 -2.542969 13.546875 -3.042969 13.777344 -3.75 L 18.570312 -18.0625 L 23.414062 -3.730469 C 23.652344 -3.039062 23.953125 -2.550781 24.316406 -2.265625 C 24.625 -2.023438 25.039062 -1.902344 25.558594 -1.902344 C 26.027344 -1.902344 26.410156 -2.023438 26.703125 -2.265625 C 27.082031 -2.570312 27.40625 -3.097656 27.675781 -3.84375 L 33.777344 -20.449219 L 33.789062 -20.476562 C 33.953125 -20.890625 34.054688 -21.183594 34.097656 -21.359375 C 34.125 -21.488281 34.140625 -21.601562 34.140625 -21.703125 C 34.140625 -22.011719 34.085938 -22.289062 33.980469 -22.542969 C 33.871094 -22.792969 33.726562 -23.007812 33.546875 -23.183594 C 33.347656 -23.375 33.109375 -23.53125 32.832031 -23.648438 C 32.582031 -23.753906 32.300781 -23.808594 31.996094 -23.808594 C 31.515625 -23.808594 31.082031 -23.675781 30.699219 -23.402344 C 30.292969 -23.113281 29.988281 -22.71875 29.785156 -22.214844 L 24.914062 -9.730469 L 20.648438 -21.898438 C 20.398438 -22.621094 20.082031 -23.128906 19.703125 -23.429688 C 19.382812 -23.683594 18.957031 -23.808594 18.425781 -23.808594 C 17.890625 -23.808594 17.46875 -23.6875 17.15625 -23.449219 C 16.804688 -23.175781 16.511719 -22.703125 16.289062 -22.035156 L 12.242188 -10.035156 L 7.347656 -21.6875 C 7.023438 -22.488281 6.644531 -23.058594 6.210938 -23.402344 C 5.863281 -23.671875 5.441406 -23.808594 4.933594 -23.808594 C 4.628906 -23.808594 4.347656 -23.753906 4.097656 -23.648438 C 3.808594 -23.527344 3.5625 -23.371094 3.359375 -23.179688 C 3.167969 -23 3.015625 -22.789062 2.898438 -22.539062 C 2.800781 -22.335938 2.75 -22.109375 2.75 -21.859375 C 2.75 -21.816406 2.777344 -21.691406 2.828125 -21.480469 C 2.890625 -21.222656 2.976562 -20.96875 3.082031 -20.71875 Z M 3.101562 -20.679688"/></g></g></g><g fill-opacity="1" fill="#ffffff"><g transform="translate(162.495275, 117.386216)"><g><path d="M -0.0898438 -20.816406 C -0.0898438 -21.964844 0.0273438 -22.898438 0.261719 -23.625 C 0.527344 -24.4375 0.984375 -25.1875 1.636719 -25.878906 L 1.65625 -25.902344 L 1.679688 -25.921875 C 2.328125 -26.570312 3.0625 -27.050781 3.878906 -27.363281 C 4.660156 -27.660156 5.578125 -27.808594 6.628906 -27.808594 L 10.175781 -27.808594 C 11.261719 -27.808594 12.222656 -27.773438 13.050781 -27.707031 C 13.941406 -27.632812 14.738281 -27.5 15.449219 -27.316406 C 16.171875 -27.128906 16.847656 -26.878906 17.476562 -26.574219 C 18.113281 -26.265625 18.734375 -25.871094 19.339844 -25.390625 C 20.738281 -24.335938 21.828125 -23.015625 22.601562 -21.429688 C 23.375 -19.855469 23.761719 -18.183594 23.761719 -16.421875 C 23.761719 -14.648438 23.355469 -12.96875 22.550781 -11.382812 C 21.75 -9.8125 20.632812 -8.484375 19.195312 -7.390625 C 18.125 -6.570312 17.003906 -5.984375 15.839844 -5.628906 C 14.714844 -5.285156 13.417969 -5.113281 11.949219 -5.113281 L 10.523438 -5.113281 L 10.523438 -7.207031 L 12.621094 -7.207031 L 12.621094 -4.703125 C 12.621094 -2.722656 12.066406 -1.085938 10.960938 0.207031 C 9.769531 1.59375 8.210938 2.289062 6.285156 2.289062 C 5.203125 2.289062 4.191406 2.027344 3.25 1.507812 C 2.3125 0.992188 1.558594 0.292969 0.980469 -0.589844 L 0.960938 -0.621094 L 0.941406 -0.65625 C 0.75 -0.972656 0.585938 -1.273438 0.453125 -1.554688 C 0.277344 -1.933594 0.144531 -2.34375 0.0625 -2.789062 C -0.0117188 -3.164062 -0.0546875 -3.617188 -0.0703125 -4.136719 C -0.0859375 -4.570312 -0.0898438 -5.117188 -0.0898438 -5.78125 Z M 4.101562 -20.816406 L 4.101562 -5.78125 C 4.101562 -5.160156 4.105469 -4.65625 4.117188 -4.265625 C 4.128906 -3.964844 4.148438 -3.734375 4.179688 -3.574219 C 4.199219 -3.476562 4.222656 -3.398438 4.25 -3.339844 C 4.320312 -3.1875 4.417969 -3.011719 4.535156 -2.8125 L 2.738281 -1.734375 L 4.492188 -2.878906 C 4.6875 -2.582031 4.949219 -2.34375 5.269531 -2.164062 C 5.585938 -1.988281 5.921875 -1.902344 6.285156 -1.902344 C 6.925781 -1.902344 7.421875 -2.109375 7.777344 -2.519531 C 8.210938 -3.027344 8.429688 -3.753906 8.429688 -4.703125 L 8.429688 -9.304688 L 11.949219 -9.304688 C 13 -9.304688 13.890625 -9.414062 14.613281 -9.636719 C 15.300781 -9.847656 15.980469 -10.210938 16.65625 -10.726562 C 17.585938 -11.433594 18.304688 -12.289062 18.816406 -13.289062 C 19.316406 -14.273438 19.570312 -15.320312 19.570312 -16.421875 C 19.570312 -17.539062 19.324219 -18.59375 18.839844 -19.585938 C 18.355469 -20.570312 17.65625 -21.410156 16.742188 -22.101562 C 16.371094 -22.394531 16.003906 -22.628906 15.640625 -22.804688 C 15.261719 -22.988281 14.847656 -23.140625 14.390625 -23.261719 C 13.914062 -23.382812 13.351562 -23.472656 12.703125 -23.527344 C 11.988281 -23.585938 11.148438 -23.617188 10.175781 -23.617188 L 6.628906 -23.617188 C 6.089844 -23.617188 5.671875 -23.558594 5.371094 -23.445312 C 5.113281 -23.347656 4.867188 -23.183594 4.644531 -22.957031 L 3.160156 -24.441406 L 4.683594 -23 C 4.464844 -22.765625 4.320312 -22.542969 4.25 -22.328125 C 4.148438 -22.023438 4.101562 -21.519531 4.101562 -20.816406 Z M 10.628906 -17.167969 C 11.035156 -17.144531 11.363281 -17.148438 11.617188 -17.175781 C 11.707031 -17.1875 11.773438 -17.195312 11.828125 -17.210938 C 11.835938 -17.210938 11.839844 -17.214844 11.839844 -17.214844 C 11.828125 -17.207031 11.808594 -17.199219 11.789062 -17.191406 C 11.589844 -17.09375 11.4375 -16.945312 11.328125 -16.742188 C 11.289062 -16.667969 11.261719 -16.597656 11.25 -16.53125 C 11.246094 -16.515625 11.242188 -16.5 11.242188 -16.492188 C 11.242188 -16.492188 11.242188 -16.492188 11.242188 -16.5 C 11.242188 -16.367188 11.28125 -16.226562 11.359375 -16.082031 C 11.4375 -15.933594 11.542969 -15.816406 11.664062 -15.738281 C 11.6875 -15.726562 11.703125 -15.714844 11.71875 -15.710938 C 11.710938 -15.710938 11.699219 -15.714844 11.679688 -15.71875 C 11.585938 -15.742188 11.457031 -15.753906 11.296875 -15.753906 L 10.523438 -15.753906 L 10.523438 -17.847656 L 12.621094 -17.847656 L 12.621094 -15.074219 L 10.523438 -15.074219 Z M 8.429688 -13.078125 L 8.429688 -19.945312 L 11.296875 -19.945312 C 12.347656 -19.945312 13.226562 -19.71875 13.933594 -19.265625 C 14.414062 -18.953125 14.789062 -18.554688 15.050781 -18.070312 C 15.304688 -17.59375 15.433594 -17.070312 15.433594 -16.5 C 15.433594 -15.855469 15.300781 -15.277344 15.03125 -14.773438 C 14.710938 -14.171875 14.238281 -13.71875 13.617188 -13.417969 C 12.871094 -13.054688 11.804688 -12.910156 10.417969 -12.980469 Z M 8.429688 -13.078125"/></g></g></g><g fill-opacity="1" fill="#ffffff"><g transform="translate(183.076602, 117.386216)"><g><path d="M 11.21875 -2.527344 C 10.542969 -0.953125 9.730469 0.222656 8.78125 0.992188 C 7.714844 1.855469 6.417969 2.289062 4.894531 2.289062 C 4.019531 2.289062 3.195312 2.125 2.417969 1.792969 C 1.644531 1.464844 0.972656 1.003906 0.402344 0.417969 C -0.152344 -0.15625 -0.589844 -0.816406 -0.90625 -1.570312 C -1.238281 -2.347656 -1.402344 -3.171875 -1.402344 -4.046875 C -1.402344 -5.078125 -1.15625 -6.117188 -0.664062 -7.171875 L 7.394531 -24.253906 C 7.914062 -25.40625 8.691406 -26.316406 9.730469 -26.988281 C 10.773438 -27.664062 11.921875 -28 13.183594 -28 C 14.472656 -28 15.636719 -27.664062 16.675781 -26.988281 C 17.707031 -26.324219 18.496094 -25.398438 19.050781 -24.210938 L 27.148438 -6.941406 L 25.25 -6.050781 L 27.109375 -7.019531 C 27.601562 -6.074219 27.847656 -5.070312 27.847656 -4.007812 C 27.847656 -3.109375 27.667969 -2.273438 27.308594 -1.492188 C 26.972656 -0.765625 26.523438 -0.121094 25.960938 0.441406 C 25.382812 1.019531 24.714844 1.46875 23.949219 1.792969 C 23.171875 2.125 22.347656 2.289062 21.472656 2.289062 C 20.003906 2.289062 18.75 1.871094 17.710938 1.035156 C 16.792969 0.300781 15.972656 -0.875 15.242188 -2.492188 L 17.15625 -3.355469 L 17.15625 -1.257812 L 9.289062 -1.257812 L 9.289062 -3.355469 Z M 7.90625 -5.449219 L 18.507812 -5.449219 L 19.066406 -4.214844 C 19.519531 -3.210938 19.941406 -2.546875 20.335938 -2.230469 C 20.609375 -2.011719 20.988281 -1.902344 21.472656 -1.902344 C 21.777344 -1.902344 22.058594 -1.957031 22.308594 -2.0625 C 22.574219 -2.175781 22.804688 -2.328125 22.996094 -2.523438 C 23.207031 -2.730469 23.375 -2.972656 23.5 -3.25 C 23.605469 -3.472656 23.65625 -3.726562 23.65625 -4.007812 C 23.65625 -4.386719 23.566406 -4.746094 23.390625 -5.085938 L 23.371094 -5.125 L 15.257812 -22.433594 C 15.039062 -22.894531 14.753906 -23.238281 14.394531 -23.472656 C 14.046875 -23.695312 13.644531 -23.808594 13.183594 -23.808594 C 12.75 -23.808594 12.359375 -23.695312 12.011719 -23.472656 C 11.660156 -23.246094 11.386719 -22.910156 11.1875 -22.464844 L 3.132812 -5.398438 C 2.90625 -4.90625 2.789062 -4.457031 2.789062 -4.046875 C 2.789062 -3.742188 2.84375 -3.460938 2.949219 -3.210938 C 3.066406 -2.933594 3.222656 -2.695312 3.414062 -2.496094 C 3.589844 -2.316406 3.804688 -2.171875 4.058594 -2.0625 C 4.308594 -1.957031 4.589844 -1.902344 4.894531 -1.902344 C 5.429688 -1.902344 5.84375 -2.023438 6.136719 -2.265625 C 6.550781 -2.597656 6.960938 -3.238281 7.363281 -4.179688 Z M 12.566406 -8.664062 L 11.253906 -11.746094 L 13.183594 -12.566406 L 15.113281 -11.746094 L 13.800781 -8.664062 L 11.875 -9.484375 L 11.875 -11.578125 L 14.496094 -11.578125 L 14.496094 -9.484375 Z M 17.664062 -7.386719 L 8.703125 -7.386719 L 13.183594 -17.925781 L 16.425781 -10.304688 Z M 17.664062 -7.386719"/></g></g></g><g fill-opacity="1" fill="#ffffff"><g transform="translate(209.516771, 117.386216)"><g><path d="M 12.582031 -7.59375 L 12.582031 -4.085938 C 12.582031 -3.183594 12.417969 -2.347656 12.085938 -1.570312 C 11.765625 -0.816406 11.332031 -0.15625 10.777344 0.417969 C 10.214844 1 9.554688 1.457031 8.796875 1.785156 C 8.03125 2.121094 7.203125 2.289062 6.320312 2.289062 C 5.375 2.289062 4.46875 2.089844 3.601562 1.695312 C 2.703125 1.285156 1.957031 0.703125 1.363281 -0.0507812 C 0.394531 -1.28125 -0.0898438 -2.921875 -0.0898438 -4.972656 L -0.0898438 -20.816406 C -0.0898438 -21.984375 0.0507812 -22.96875 0.335938 -23.773438 C 0.667969 -24.707031 1.234375 -25.511719 2.035156 -26.191406 L 3.390625 -24.59375 L 1.996094 -26.15625 C 2.71875 -26.804688 3.496094 -27.25 4.328125 -27.492188 C 5.046875 -27.703125 6.019531 -27.808594 7.246094 -27.808594 L 10.792969 -27.808594 C 11.925781 -27.808594 12.816406 -27.773438 13.460938 -27.699219 C 14.101562 -27.625 14.742188 -27.515625 15.382812 -27.371094 L 15.4375 -27.359375 L 15.488281 -27.34375 C 16.710938 -27 17.832031 -26.476562 18.84375 -25.78125 C 19.851562 -25.089844 20.722656 -24.257812 21.449219 -23.292969 C 22.171875 -22.335938 22.734375 -21.28125 23.140625 -20.125 C 23.554688 -18.949219 23.761719 -17.726562 23.761719 -16.460938 C 23.761719 -14.945312 23.496094 -13.554688 22.964844 -12.28125 C 22.449219 -11.050781 21.628906 -9.796875 20.5 -8.519531 L 18.929688 -9.90625 L 20.703125 -11.019531 L 22.707031 -7.820312 C 23.097656 -7.21875 23.386719 -6.574219 23.574219 -5.886719 C 23.75 -5.230469 23.839844 -4.59375 23.839844 -3.96875 C 23.839844 -3.089844 23.671875 -2.261719 23.335938 -1.496094 C 23.007812 -0.738281 22.550781 -0.078125 21.964844 0.484375 C 21.394531 1.039062 20.730469 1.472656 19.980469 1.792969 C 19.203125 2.125 18.378906 2.289062 17.5 2.289062 C 16.367188 2.289062 15.347656 2.035156 14.441406 1.53125 C 13.539062 1.023438 12.792969 0.285156 12.203125 -0.683594 L 8.691406 -6.511719 L 10.484375 -7.59375 Z M 8.390625 -15.132812 L 15.785156 -2.863281 C 15.992188 -2.519531 16.226562 -2.277344 16.492188 -2.128906 C 16.757812 -1.976562 17.09375 -1.902344 17.5 -1.902344 C 17.808594 -1.902344 18.085938 -1.957031 18.339844 -2.0625 C 18.613281 -2.179688 18.851562 -2.335938 19.050781 -2.527344 C 19.238281 -2.707031 19.386719 -2.921875 19.492188 -3.167969 C 19.59375 -3.402344 19.644531 -3.671875 19.644531 -3.96875 C 19.644531 -4.222656 19.605469 -4.496094 19.527344 -4.792969 C 19.453125 -5.054688 19.332031 -5.324219 19.15625 -5.59375 L 16.320312 -10.121094 L 17.355469 -11.296875 C 18.179688 -12.226562 18.757812 -13.09375 19.09375 -13.894531 C 19.410156 -14.652344 19.570312 -15.507812 19.570312 -16.460938 C 19.570312 -17.25 19.441406 -18.007812 19.1875 -18.734375 C 18.925781 -19.480469 18.5625 -20.160156 18.101562 -20.769531 C 17.648438 -21.371094 17.101562 -21.890625 16.46875 -22.328125 C 15.835938 -22.761719 15.128906 -23.089844 14.351562 -23.308594 L 14.917969 -25.328125 L 14.453125 -23.28125 C 13.964844 -23.394531 13.472656 -23.476562 12.984375 -23.535156 C 12.5 -23.589844 11.769531 -23.617188 10.792969 -23.617188 L 7.246094 -23.617188 C 6.417969 -23.617188 5.839844 -23.566406 5.503906 -23.46875 C 5.28125 -23.402344 5.042969 -23.257812 4.789062 -23.03125 L 4.769531 -23.015625 L 4.75 -22.996094 C 4.523438 -22.804688 4.367188 -22.59375 4.289062 -22.371094 C 4.164062 -22.019531 4.101562 -21.5 4.101562 -20.816406 L 4.101562 -4.972656 C 4.101562 -3.890625 4.285156 -3.113281 4.652344 -2.648438 C 4.828125 -2.425781 5.058594 -2.25 5.34375 -2.117188 C 5.65625 -1.976562 5.984375 -1.902344 6.320312 -1.902344 C 6.621094 -1.902344 6.890625 -1.953125 7.121094 -2.054688 C 7.371094 -2.164062 7.582031 -2.3125 7.765625 -2.496094 C 7.957031 -2.695312 8.113281 -2.933594 8.230469 -3.210938 C 8.335938 -3.460938 8.390625 -3.753906 8.390625 -4.085938 Z M 10.832031 -17.167969 L 11.496094 -17.167969 C 11.644531 -17.160156 11.757812 -17.167969 11.828125 -17.179688 C 11.789062 -17.171875 11.730469 -17.140625 11.652344 -17.089844 C 11.503906 -16.984375 11.390625 -16.847656 11.3125 -16.675781 C 11.265625 -16.574219 11.242188 -16.488281 11.242188 -16.421875 C 11.242188 -16.363281 11.265625 -16.285156 11.308594 -16.191406 C 11.382812 -16.023438 11.492188 -15.890625 11.636719 -15.789062 C 11.710938 -15.738281 11.765625 -15.707031 11.804688 -15.699219 C 11.726562 -15.714844 11.609375 -15.722656 11.453125 -15.714844 L 11.007812 -15.714844 C 10.777344 -15.714844 10.515625 -15.730469 10.226562 -15.769531 L 10.484375 -17.847656 L 12.582031 -17.847656 L 12.582031 -15.074219 L 10.484375 -15.074219 L 10.484375 -17.167969 Z M 10.832031 -12.976562 L 8.390625 -12.976562 L 8.390625 -20.222656 L 10.746094 -19.929688 C 10.863281 -19.914062 10.953125 -19.90625 11.007812 -19.90625 L 11.371094 -19.90625 L 11.371094 -17.808594 L 11.289062 -19.90625 C 12.417969 -19.949219 13.339844 -19.71875 14.054688 -19.214844 C 14.527344 -18.878906 14.882812 -18.449219 15.125 -17.925781 C 15.332031 -17.472656 15.433594 -16.96875 15.433594 -16.421875 C 15.433594 -15.878906 15.332031 -15.382812 15.121094 -14.929688 C 14.882812 -14.410156 14.53125 -13.984375 14.058594 -13.65625 C 13.351562 -13.160156 12.441406 -12.933594 11.328125 -12.976562 L 11.410156 -15.074219 L 11.410156 -12.976562 Z M 10.832031 -12.976562"/></g></g></g><g fill-opacity="1" fill="#ffffff"><g transform="translate(232.719377, 117.386216)"><g><path d="M 12.660156 -9.136719 L 12.660156 -4.703125 C 12.660156 -2.691406 12.101562 -1.042969 10.988281 0.238281 C 9.800781 1.605469 8.242188 2.289062 6.320312 2.289062 C 4.355469 2.289062 2.777344 1.617188 1.589844 0.269531 C 0.46875 -1 -0.0898438 -2.644531 -0.0898438 -4.664062 L -0.0898438 -21.164062 C -0.0898438 -23.105469 0.46875 -24.710938 1.589844 -25.980469 C 2.777344 -27.328125 4.328125 -28 6.246094 -28 C 7.164062 -28 8.042969 -27.808594 8.886719 -27.429688 C 9.722656 -27.046875 10.433594 -26.527344 11.015625 -25.867188 L 9.445312 -24.480469 L 10.972656 -25.914062 C 11.597656 -25.25 12.042969 -24.511719 12.304688 -23.699219 C 12.542969 -22.976562 12.660156 -22.117188 12.660156 -21.125 L 12.660156 -17 L 10.5625 -17 L 8.828125 -18.175781 L 13.53125 -25.117188 C 14.148438 -26.042969 14.894531 -26.75 15.773438 -27.242188 C 16.675781 -27.75 17.675781 -28 18.773438 -28 C 19.632812 -28 20.460938 -27.828125 21.253906 -27.476562 C 22.023438 -27.140625 22.691406 -26.6875 23.261719 -26.117188 C 23.828125 -25.550781 24.28125 -24.890625 24.617188 -24.144531 C 24.972656 -23.355469 25.148438 -22.53125 25.148438 -21.664062 C 25.148438 -20.386719 24.808594 -19.25 24.128906 -18.25 L 19.808594 -11.957031 L 18.078125 -13.144531 L 19.730469 -14.4375 L 24.972656 -7.730469 C 25.808594 -6.695312 26.226562 -5.492188 26.226562 -4.125 C 26.226562 -3.242188 26.054688 -2.402344 25.703125 -1.605469 C 25.367188 -0.835938 24.914062 -0.167969 24.34375 0.402344 C 23.777344 0.96875 23.117188 1.421875 22.371094 1.757812 C 21.582031 2.113281 20.757812 2.289062 19.890625 2.289062 C 19.011719 2.289062 18.171875 2.117188 17.371094 1.773438 C 16.507812 1.402344 15.8125 0.890625 15.285156 0.230469 L 8.917969 -7.835938 L 10.5625 -9.136719 Z M 8.464844 -15.175781 L 18.558594 -2.390625 C 18.648438 -2.277344 18.804688 -2.175781 19.019531 -2.082031 C 19.296875 -1.960938 19.585938 -1.902344 19.890625 -1.902344 C 20.15625 -1.902344 20.410156 -1.957031 20.652344 -2.066406 C 20.929688 -2.191406 21.171875 -2.355469 21.378906 -2.5625 C 21.578125 -2.761719 21.738281 -3.003906 21.867188 -3.289062 C 21.980469 -3.550781 22.035156 -3.828125 22.035156 -4.125 C 22.035156 -4.503906 21.914062 -4.84375 21.671875 -5.148438 L 15.480469 -13.066406 L 20.664062 -20.609375 C 20.859375 -20.894531 20.957031 -21.246094 20.957031 -21.664062 C 20.957031 -21.929688 20.902344 -22.183594 20.792969 -22.421875 C 20.667969 -22.703125 20.503906 -22.945312 20.296875 -23.152344 C 20.097656 -23.351562 19.855469 -23.511719 19.570312 -23.640625 C 19.3125 -23.753906 19.046875 -23.808594 18.773438 -23.808594 C 18.40625 -23.808594 18.089844 -23.734375 17.824219 -23.585938 C 17.53125 -23.421875 17.257812 -23.148438 17 -22.761719 L 8.464844 -10.171875 L 8.464844 -21.125 C 8.464844 -21.675781 8.417969 -22.101562 8.320312 -22.40625 C 8.25 -22.621094 8.113281 -22.832031 7.917969 -23.042969 L 7.894531 -23.066406 L 7.871094 -23.09375 C 7.683594 -23.304688 7.445312 -23.476562 7.152344 -23.613281 C 6.859375 -23.742188 6.558594 -23.808594 6.246094 -23.808594 C 5.589844 -23.808594 5.085938 -23.609375 4.734375 -23.207031 C 4.3125 -22.730469 4.101562 -22.046875 4.101562 -21.164062 L 4.101562 -4.664062 C 4.101562 -3.703125 4.3125 -2.984375 4.734375 -2.503906 C 5.085938 -2.105469 5.617188 -1.902344 6.320312 -1.902344 C 6.96875 -1.902344 7.472656 -2.105469 7.824219 -2.511719 C 8.253906 -3.003906 8.464844 -3.734375 8.464844 -4.703125 Z M 8.464844 -15.175781"/></g></g></g><g clip-path="url(#aa331bc4e1)"><g transform="matrix(1, 0, 0, 1, -0.000000000000007105, 0)"><g clip-path="url(#f5cd6be292)"><g clip-path="url(#96cdf2353e)"><g mask="url(#4bca3722f0)"><g transform="matrix(1, 0, 0, 1, -0.000000000000007105, 0)"><g clip-path="url(#6a3c7163cd)"><g clip-path="url(#bd4f04fe75)"><path fill-rule="nonzero" d="M 4.457031 3.394531 L 4.457031 204.617188 L 313 204.617188 L 313 3.394531 Z M 4.457031 3.394531" fill="url(#b5b084f6fa)"/></g></g></g></g></g></g></g></g></g></g></svg>